<!-- Generated by IcoMoon.io -->
<svg version="1.1" xmlns="http://www.w3.org/2000/svg" width="32" height="32" viewBox="0 0 32 32">
<title>quote-left</title>
<path d="M9.271 13.98c2.892 0 5.246 2.352 5.246 5.246s-2.352 5.246-5.246 5.246c-2.892 0-5.246-2.352-5.246-5.246l-0.025-0.735c0-5.809 4.707-10.492 10.492-10.492v2.99c-2.010 0-3.873 0.784-5.295 2.205-0.271 0.271-0.514 0.539-0.76 0.858 0.271-0.049 0.564-0.073 0.834-0.073v0l0.001-0.001zM22.754 13.98c2.892 0 5.246 2.352 5.246 5.246s-2.352 5.246-5.246 5.246c-2.892 0-5.246-2.352-5.246-5.246l-0.025-0.735c0-5.809 4.707-10.492 10.492-10.492v2.99c-1.985 0-3.873 0.784-5.295 2.205-0.271 0.271-0.514 0.539-0.735 0.858 0.271-0.049 0.539-0.073 0.81-0.073v0l-0.001-0.001z"></path>
</svg>
